<svg width="22" height="28" viewBox="0 0 22 28" fill="none" xmlns="http://www.w3.org/2000/svg">
<path fill-rule="evenodd" clip-rule="evenodd" d="M11 0C4.92525 0 0 5.10451 0 11.4005C0 17.6474 3.51037 24.9387 8.98837 27.5442C9.61801 27.8444 10.3048 28 11 28C11.6952 28 12.382 27.8444 13.0116 27.5442C18.4896 24.9373 22 17.6488 22 11.4019C22 5.10311 17.0748 0 11 0ZM5.84375 11.2002C5.84375 10.9218 5.9524 10.6547 6.1458 10.4578C6.33919 10.2609 6.6015 10.1502 6.875 10.1502H15.125C15.3985 10.1502 15.6608 10.2609 15.8542 10.4578C16.0476 10.6547 16.1562 10.9218 16.1562 11.2002C16.1562 11.4787 16.0476 11.7458 15.8542 11.9427C15.6608 12.1396 15.3985 12.2503 15.125 12.2503H6.875C6.6015 12.2503 6.33919 12.1396 6.1458 11.9427C5.9524 11.7458 5.84375 11.4787 5.84375 11.2002Z" fill="#BE9C52"/>
</svg>
